<mxfile host="Electron" agent="Mozilla/5.0 (Windows NT 10.0; Win64; x64) AppleWebKit/537.36 (KHTML, like Gecko) draw.io/26.2.2 Chrome/134.0.6998.178 Electron/35.1.2 Safari/537.36" version="26.2.2">
  <diagram name="Page-1" id="2YBvvXClWsGukQMizWep">
    <mxGraphModel dx="788" dy="524" grid="1" gridSize="10" guides="1" tooltips="1" connect="1" arrows="1" fold="1" page="1" pageScale="1" pageWidth="850" pageHeight="1100" math="0" shadow="0">
      <root>
        <mxCell id="0" />
        <mxCell id="1" parent="0" />
        <mxCell id="BmQ2quEzxwNZcImrUjqZ-5" style="edgeStyle=orthogonalEdgeStyle;rounded=0;orthogonalLoop=1;jettySize=auto;html=1;exitX=0.5;exitY=1;exitDx=0;exitDy=0;" edge="1" parent="1" source="BmQ2quEzxwNZcImrUjqZ-1" target="BmQ2quEzxwNZcImrUjqZ-6">
          <mxGeometry relative="1" as="geometry">
            <mxPoint x="405" y="150" as="targetPoint" />
          </mxGeometry>
        </mxCell>
        <mxCell id="BmQ2quEzxwNZcImrUjqZ-1" value="" style="ellipse;html=1;shape=startState;fillColor=#000000;strokeColor=#ff0000;" vertex="1" parent="1">
          <mxGeometry x="390" y="90" width="30" height="30" as="geometry" />
        </mxCell>
        <mxCell id="BmQ2quEzxwNZcImrUjqZ-7" style="edgeStyle=orthogonalEdgeStyle;rounded=0;orthogonalLoop=1;jettySize=auto;html=1;exitX=0.5;exitY=1;exitDx=0;exitDy=0;" edge="1" parent="1" source="BmQ2quEzxwNZcImrUjqZ-6" target="BmQ2quEzxwNZcImrUjqZ-8">
          <mxGeometry relative="1" as="geometry">
            <mxPoint x="405" y="230" as="targetPoint" />
          </mxGeometry>
        </mxCell>
        <mxCell id="BmQ2quEzxwNZcImrUjqZ-6" value="Login Form" style="rounded=1;whiteSpace=wrap;html=1;arcSize=40;fontColor=#000000;fillColor=#ffffc0;strokeColor=#ff0000;" vertex="1" parent="1">
          <mxGeometry x="345" y="150" width="120" height="40" as="geometry" />
        </mxCell>
        <mxCell id="BmQ2quEzxwNZcImrUjqZ-9" style="edgeStyle=orthogonalEdgeStyle;rounded=0;orthogonalLoop=1;jettySize=auto;html=1;exitX=0;exitY=0.5;exitDx=0;exitDy=0;" edge="1" parent="1" source="BmQ2quEzxwNZcImrUjqZ-8" target="BmQ2quEzxwNZcImrUjqZ-10">
          <mxGeometry relative="1" as="geometry">
            <mxPoint x="270" y="260" as="targetPoint" />
          </mxGeometry>
        </mxCell>
        <mxCell id="BmQ2quEzxwNZcImrUjqZ-11" style="edgeStyle=orthogonalEdgeStyle;rounded=0;orthogonalLoop=1;jettySize=auto;html=1;exitX=0.5;exitY=1;exitDx=0;exitDy=0;" edge="1" parent="1" source="BmQ2quEzxwNZcImrUjqZ-8" target="BmQ2quEzxwNZcImrUjqZ-12">
          <mxGeometry relative="1" as="geometry">
            <mxPoint x="405" y="290" as="targetPoint" />
          </mxGeometry>
        </mxCell>
        <mxCell id="BmQ2quEzxwNZcImrUjqZ-8" value="Validating Credentials" style="rounded=1;whiteSpace=wrap;html=1;arcSize=40;fontColor=#000000;fillColor=#ffffc0;strokeColor=#ff0000;" vertex="1" parent="1">
          <mxGeometry x="345" y="210" width="120" height="40" as="geometry" />
        </mxCell>
        <mxCell id="BmQ2quEzxwNZcImrUjqZ-17" style="edgeStyle=orthogonalEdgeStyle;rounded=0;orthogonalLoop=1;jettySize=auto;html=1;exitX=0.5;exitY=1;exitDx=0;exitDy=0;" edge="1" parent="1" source="BmQ2quEzxwNZcImrUjqZ-10" target="BmQ2quEzxwNZcImrUjqZ-18">
          <mxGeometry relative="1" as="geometry">
            <mxPoint x="220" y="330" as="targetPoint" />
          </mxGeometry>
        </mxCell>
        <mxCell id="BmQ2quEzxwNZcImrUjqZ-20" style="edgeStyle=orthogonalEdgeStyle;rounded=0;orthogonalLoop=1;jettySize=auto;html=1;exitX=0.25;exitY=0;exitDx=0;exitDy=0;entryX=0;entryY=0.75;entryDx=0;entryDy=0;" edge="1" parent="1" source="BmQ2quEzxwNZcImrUjqZ-10" target="BmQ2quEzxwNZcImrUjqZ-6">
          <mxGeometry relative="1" as="geometry">
            <Array as="points">
              <mxPoint x="180" y="270" />
              <mxPoint x="180" y="180" />
            </Array>
          </mxGeometry>
        </mxCell>
        <mxCell id="BmQ2quEzxwNZcImrUjqZ-10" value="LogIn Failed" style="rounded=1;whiteSpace=wrap;html=1;arcSize=40;fontColor=#000000;fillColor=#ffffc0;strokeColor=#ff0000;" vertex="1" parent="1">
          <mxGeometry x="160" y="270" width="120" height="40" as="geometry" />
        </mxCell>
        <mxCell id="BmQ2quEzxwNZcImrUjqZ-13" style="edgeStyle=orthogonalEdgeStyle;rounded=0;orthogonalLoop=1;jettySize=auto;html=1;exitX=0.5;exitY=1;exitDx=0;exitDy=0;" edge="1" parent="1" source="BmQ2quEzxwNZcImrUjqZ-12" target="BmQ2quEzxwNZcImrUjqZ-14">
          <mxGeometry relative="1" as="geometry">
            <mxPoint x="405" y="350" as="targetPoint" />
          </mxGeometry>
        </mxCell>
        <mxCell id="BmQ2quEzxwNZcImrUjqZ-12" value="Logged In State" style="rounded=1;whiteSpace=wrap;html=1;arcSize=40;fontColor=#000000;fillColor=#ffffc0;strokeColor=#ff0000;" vertex="1" parent="1">
          <mxGeometry x="345" y="280" width="120" height="40" as="geometry" />
        </mxCell>
        <mxCell id="BmQ2quEzxwNZcImrUjqZ-15" style="edgeStyle=orthogonalEdgeStyle;rounded=0;orthogonalLoop=1;jettySize=auto;html=1;exitX=0.5;exitY=1;exitDx=0;exitDy=0;" edge="1" parent="1" source="BmQ2quEzxwNZcImrUjqZ-14" target="BmQ2quEzxwNZcImrUjqZ-16">
          <mxGeometry relative="1" as="geometry">
            <mxPoint x="405" y="430" as="targetPoint" />
          </mxGeometry>
        </mxCell>
        <mxCell id="BmQ2quEzxwNZcImrUjqZ-14" value="Dashboard" style="rounded=1;whiteSpace=wrap;html=1;arcSize=40;fontColor=#000000;fillColor=#ffffc0;strokeColor=#ff0000;" vertex="1" parent="1">
          <mxGeometry x="345" y="350" width="120" height="40" as="geometry" />
        </mxCell>
        <mxCell id="BmQ2quEzxwNZcImrUjqZ-16" value="" style="ellipse;html=1;shape=endState;fillColor=#000000;strokeColor=#ff0000;" vertex="1" parent="1">
          <mxGeometry x="390" y="415" width="30" height="30" as="geometry" />
        </mxCell>
        <mxCell id="BmQ2quEzxwNZcImrUjqZ-19" style="edgeStyle=orthogonalEdgeStyle;rounded=0;orthogonalLoop=1;jettySize=auto;html=1;exitX=0;exitY=0.5;exitDx=0;exitDy=0;entryX=0;entryY=0.5;entryDx=0;entryDy=0;" edge="1" parent="1" source="BmQ2quEzxwNZcImrUjqZ-18" target="BmQ2quEzxwNZcImrUjqZ-6">
          <mxGeometry relative="1" as="geometry">
            <Array as="points">
              <mxPoint x="120" y="360" />
              <mxPoint x="120" y="170" />
            </Array>
          </mxGeometry>
        </mxCell>
        <mxCell id="BmQ2quEzxwNZcImrUjqZ-18" value="Password Reset" style="rounded=1;whiteSpace=wrap;html=1;arcSize=40;fontColor=#000000;fillColor=#ffffc0;strokeColor=#ff0000;" vertex="1" parent="1">
          <mxGeometry x="160" y="340" width="120" height="40" as="geometry" />
        </mxCell>
      </root>
    </mxGraphModel>
  </diagram>
</mxfile>
